<svg viewBox="0 0 1200 306" xmlns="http://www.w3.org/2000/svg"><g clip-path="url(#prefix__clip0_2306_20)"><path fill="#93BBEA" d="M0 0h1200v306H0z"/><path d="M1090.42 204.092c-2.36-11.926-6.66-23.019-7.87-34.053-.26-2.382-2.15-4.382-4.25-4.217-2.11.165-6.68 3.188-7.85 12.496-.86 6.738 4.65 15.575 1.83 18.415-2.82 2.84 20.22 8.667 18.14 7.359z" fill="#F5C1C7"/><path d="M1016.82 114.857c-5.16 1.604-9.18 24.804-10.78 31.686-9.756 42.011-23.118 90.696-24.304 95.801-1.483 6.382.987 7.516 3.983 9.333 2.995 1.817 62.531 16.209 67.691 14.605 4.12-1.284 6.61-10.796 6.61-10.796 9.6-40.365 26.26-113.62 26.53-117.143.34-4.405.96-7.064-1.39-8.731-2.35-1.666-9.7-3.373-13.37-4.227-16.6-4.044-46.86-13.049-54.97-10.528z" fill="#5992E8"/><path opacity=".4" d="M1048.02 157.869c1.93 1.96 2.69 3.801 2.58 6.55-.19 5.19-7.22 7.527-12.4 7.216-.35-.021-.69-.06-1.02-.12-2.56-.48-5.21-5.634-4.29-9.66 1.28-5.655 10.28-7.846 14.83-4.25.11.084.2.172.3.264zM1044.89 151.739c-1.03 1.401-2.88 2.502-4.01 2.797-.42.108-.82-.074-1.15-.346-.21-.178-.4-.398-.43-.677-.03-.487.1-1.328.75-2.502.6-1.082 2.4-1.914 4.04-2.447 1.22-.397 2.1.422 1.63 1.613-.22.554-.5 1.117-.83 1.562z" fill="#FAF8F9"/><circle opacity=".4" cx="1072.04" cy="140.377" r="3.63" transform="rotate(37.046 1072.04 140.377)" fill="#FAF8F9"/><path d="M1112.17 245.614c-21.31-18.619-17.88-31.638-21.71-41.66-2.24-5.877-12.48-15.839-14.52-6.963-.94 4.102-12.35-2.116-14.43-3.424-6.21-3.906-13.41-10.023-18.6-13.939-4.45-3.358-9.72-8.511-10.48-2.509-.77 6.002 11.27 19.37 14.63 23.828 3.36 4.459 6.72 8.918 1.38 10.38-5.34 1.463-26.27-19.288-33.1-21.555-6.83-2.267-10.3-.076 2.31 14.678 12.6 14.753 14.36 22.132 13.23 23.268-1.12 1.136-2.25 2.272-15.62-6.48s-22.629-11.18-24.319-9.476c-1.69 1.704-.475 3.763 1.016 5.514 4.489 5.276 23.923 20.344 25.313 22.857 1.03 1.837-.96 2.442-2.34 2.365-12.91-.717-26.213-3.648-27.993-3.16-1.781.487-3.38 3.407-.111 6.65 2.156 2.139 11.654 7.428 16.454 9.561 11.6 6.617 59.5 30.083 63.47 31.314 4.95 1.538-4.2-2.986.93-5.932 9.9-5.676 15.09-11.234 21.95-19.23 5.96-6.945 43.86 2.533 22.54-16.087z" fill="#F5C1C7"/><path d="M1160.32 269.662c-19.15-9.092-55.19-30.099-60.54-38.36-.07-.128-.15-.255-.23-.383.07.125.15.252.23.383 11.78 20.326-52.21 42.343-34.22 53.959 18.1 11.688 156.37 77.793 159.54 59.746 1.85-10.591 24.21-4.735 26.91-15.001 3.19-12.123 28.76-14.149 23.62-21.413-5.14-7.265-95.84-29.695-115.31-38.931z" fill="#F5C1C7"/><path d="M104.795 167.218c-5.881 16.109-9.807 35.435.553 37.294 10.359 1.858 8.974-21.268 20.707-26.952 11.734-5.683 30.887 6.074 37.442 7.437 6.555 1.364 13.811 3.736 13.203-13.175-.608-16.911-6.224-71.336-7.657-85.506-1.433-14.171-12.762-14.855-23.526-8.039-10.765 6.816-91.174 64.555-97.653 72.299-6.48 7.744-6.206 10.582-.042 11.687 6.164 1.106 25.36 6.956 35.82-.665 16.008-11.664 50.015-52.675 55.494-51.405 5.352 1.24-29.764 44.489-34.341 57.025zM8.768 211.438c-4.604 2.694-9.377 6.548-7.263 9.048 2.115 2.5 6.369-3.318 10.308-2.353 3.94.964 6.199 7.581 7.5 9.207 1.3 1.627 2.57 3.635 5.777-.539 3.208-4.174 12.655-18.333 15.122-22.014 2.467-3.68-.113-6.091-4.045-6.592-3.932-.501-34.655-2.608-37.744-2.036-3.089.571-3.586 1.305-2.328 2.793 1.258 1.487 4.7 6.696 8.718 6.944 6.15.378 22.434-2.707 23.495-1.316 1.037 1.358-15.957 4.76-19.54 6.858zM247.169 57.414c.46 3.062 1.508 6.464 3.311 5.863 1.802-.6-.416-4.146.952-6.061 1.369-1.915 5.42-1.707 6.577-2.058 1.157-.35 2.512-.602.954-3.23-1.558-2.627-7.152-10.768-8.604-12.89-1.452-2.122-3.307-1.251-4.424.76-1.117 2.01-8.871 18.112-9.228 19.9-.358 1.787-.069 2.213 1.003 1.855 1.073-.357 4.621-1.09 5.62-3.201 1.529-3.233 3.374-12.672 4.352-12.944.956-.266-.872 9.624-.513 12.006z" fill="#5992E8"/></g><defs><clipPath id="prefix__clip0_2306_20"><path fill="#fff" d="M0 0h1200v306H0z"/></clipPath></defs></svg>
